<svg width="377" height="13" viewBox="0 0 377 13" fill="none" xmlns="http://www.w3.org/2000/svg"><path d="M197.72 2.78011C197.542 2.68475 197.354 2.6077 197.16 2.55011C196.961 2.48709 196.757 2.44027 196.55 2.41011C196.34 2.39542 196.13 2.39542 195.92 2.41011C195.67 2.41011 195.4 2.41011 195.15 2.41011C194.9 2.41011 194.67 2.53011 194.43 2.59011C194.19 2.65011 193.99 2.76011 193.75 2.83011C193.51 2.90011 193.29 2.97011 193.06 3.05011C192.83 3.13011 192.55 3.11011 192.32 3.18011C192.09 3.25011 191.92 3.42011 191.7 3.51011C191.48 3.60011 191.16 3.51011 190.92 3.61011C190.68 3.71011 190.48 3.88011 190.23 3.92011C189.98 3.96011 189.7 3.92011 189.44 3.92011C189.178 3.95835 188.914 3.98172 188.65 3.99011C188.4 3.99011 188.16 3.80011 187.91 3.79011C187.66 3.78011 187.39 3.86011 187.15 3.79011C186.91 3.72011 186.71 3.59011 186.47 3.53011C186.23 3.47011 185.94 3.53011 185.71 3.53011L185 3.41011C184.77 3.41011 184.56 3.26011 184.33 3.22011C184.1 3.18011 183.85 3.22011 183.61 3.16011C183.37 3.10011 183.15 3.06011 182.91 3.04011C182.67 3.02011 182.44 3.04011 182.2 3.04011C181.96 3.04011 181.73 2.91011 181.51 2.92011C181.29 2.93011 181.07 3.12011 180.85 3.13011C180.63 3.14011 180.38 3.07011 180.15 3.13011C179.92 3.19011 179.72 3.29011 179.5 3.32011L178.83 3.41011C178.6 3.41011 178.36 3.41011 178.14 3.41011L177.47 3.52011C177.25 3.52011 177.01 3.57011 176.79 3.61011C176.57 3.65011 176.34 3.67011 176.12 3.72011C175.9 3.77011 175.61 3.93011 175.34 3.98011C175.07 4.03011 174.83 3.98011 174.6 3.98011L173.9 4.12011C173.67 4.12011 173.47 4.30011 173.24 4.34011C173.01 4.38011 172.75 4.34011 172.52 4.41011C172.29 4.48011 172.08 4.58011 171.84 4.62011C171.6 4.66011 171.36 4.62011 171.12 4.68011C170.88 4.74011 170.64 4.68011 170.41 4.75011C170.18 4.82011 169.91 4.75011 169.68 4.75011C169.45 4.75011 169.22 4.88011 168.99 4.92011L168.29 5.06011C168.06 5.06011 167.8 5.06011 167.57 5.06011L166.88 5.18011L166.19 5.28011C165.96 5.28011 165.75 5.43011 165.51 5.45011C165.27 5.47011 165.03 5.45011 164.8 5.45011H164.1C163.86 5.45011 163.63 5.53011 163.39 5.53011C163.15 5.53011 162.92 5.44011 162.69 5.42011C162.46 5.40011 162.19 5.50011 161.96 5.42011C161.73 5.34011 161.5 5.31011 161.27 5.27011C161.04 5.23011 160.85 5.10011 160.63 5.04011C160.41 4.98011 160.13 4.85011 159.87 4.77011C159.61 4.69011 159.26 4.77011 159 4.67011C158.74 4.57011 158.61 4.41011 158.37 4.33011C158.13 4.25011 157.88 4.23011 157.65 4.15011C157.42 4.07011 157.17 4.05011 156.93 3.97011C156.69 3.89011 156.46 3.88011 156.22 3.85011C155.98 3.82011 155.75 3.63011 155.52 3.60011C155.29 3.57011 154.97 3.71011 154.76 3.69011C154.55 3.67011 154.28 3.69011 154.05 3.69011C153.82 3.69011 153.55 3.69011 153.32 3.69011C153.09 3.69011 152.89 3.89011 152.66 3.94011C152.43 3.99011 152.13 3.94011 151.9 3.94011C151.67 3.94011 151.51 4.19011 151.29 4.26011C151.07 4.33011 150.84 4.38011 150.63 4.46011L149.99 4.71011C149.74 4.80011 149.43 4.82011 149.18 4.91011L148.42 5.20011C148.2 5.28011 148.01 5.42011 147.79 5.50011C147.57 5.58011 147.35 5.68011 147.13 5.77011C146.91 5.86011 146.68 5.94011 146.45 6.01011C146.161 6.04914 145.871 6.0725 145.58 6.08011C145.359 6.12621 145.131 6.12621 144.91 6.08011C144.714 6.03384 144.536 5.92926 144.4 5.78011C144.23 5.62011 143.9 5.53011 143.75 5.36011C143.6 5.19011 143.58 5.02011 143.46 4.90011C143.34 4.78011 143.23 4.58011 143.1 4.47011C142.95 4.33327 142.785 4.21261 142.61 4.11011C142.407 4.01022 142.192 3.93631 141.97 3.89011C141.758 3.82473 141.541 3.78117 141.32 3.76011C141.12 3.76011 140.91 3.65011 140.66 3.61011L140 3.70011C139.82 3.70011 139.65 3.70011 139.35 3.70011C139.101 3.72215 138.853 3.76225 138.61 3.82011C138.343 3.85415 138.079 3.90763 137.82 3.98011C137.65 4.06011 137.58 4.26011 137.4 4.35011C137.22 4.44011 137.06 4.53011 136.88 4.62011C136.7 4.71011 136.49 4.75011 136.31 4.83011L135.8 5.11011C135.57 5.22011 135.25 5.24011 135.01 5.36011C134.77 5.48011 134.64 5.69011 134.41 5.81011C134.18 5.93011 133.9 5.90011 133.69 5.99011C133.48 6.08011 133.29 6.19011 133.07 6.28011C132.85 6.37011 132.69 6.51011 132.47 6.59011C132.25 6.67011 132.01 6.72011 131.78 6.79011L131.11 7.01011C130.88 7.08011 130.68 7.20011 130.45 7.26011C130.22 7.32011 129.95 7.31011 129.72 7.37011C129.49 7.43011 129.23 7.43011 129 7.48011L128.3 7.70011C128.06 7.70011 127.88 7.94011 127.65 7.99011C127.356 7.98505 127.062 7.96502 126.77 7.93011C126.49 7.93011 126.2 8.10011 125.91 8.09011C125.62 8.08011 125.58 7.89011 125.41 7.87011C125.24 7.85011 125.03 7.87011 124.86 7.87011C124.69 7.87011 124.57 7.64011 124.4 7.56011C124.23 7.48011 124 7.44011 123.83 7.36011C123.66 7.28011 123.51 7.16011 123.34 7.08011C123.17 7.00011 122.96 6.95011 122.79 6.87011C122.62 6.79011 122.4 6.67011 122.24 6.56011C122.08 6.45011 121.99 6.25011 121.83 6.14011C121.67 6.03011 121.46 5.93011 121.31 5.80011C121.16 5.67011 120.86 5.64011 120.69 5.53011C120.52 5.42011 120.44 5.21011 120.24 5.12011C120.007 5.06222 119.769 5.0254 119.53 5.01011C119.087 4.89129 118.64 4.78789 118.19 4.70011C117.96 4.70011 117.73 4.70011 117.49 4.70011H116.78C116.54 4.70011 116.3 4.64011 116.06 4.70011C115.82 4.76011 115.63 4.89011 115.4 4.94011C115.17 4.99011 114.96 5.04011 114.75 5.11011C114.5 5.18855 114.256 5.28548 114.02 5.40011C113.786 5.50323 113.562 5.62706 113.35 5.77011C113.2 5.87011 113.08 6.00011 112.93 6.11011C112.78 6.22011 112.49 6.23011 112.34 6.34011C112.19 6.45011 112.19 6.67011 112.04 6.78011C111.89 6.89011 111.61 6.90011 111.46 7.01011C111.31 7.12011 111.16 7.26011 110.99 7.38011C110.82 7.50011 110.63 7.58011 110.45 7.69011C110.27 7.80011 110.04 7.85011 109.86 7.95011C109.68 8.05011 109.62 8.28011 109.43 8.37011C109.24 8.46011 108.95 8.46011 108.75 8.55011C108.55 8.64011 108.41 8.78011 108.21 8.86011C108.01 8.94011 107.76 8.97011 107.56 9.04011C107.36 9.11011 107.16 9.21011 106.95 9.28011L106.31 9.47011C106.044 9.54928 105.767 9.57977 105.49 9.56011C105.205 9.57075 104.921 9.5301 104.65 9.44011C104.406 9.33089 104.169 9.20734 103.94 9.07011C103.74 8.93011 103.66 8.70011 103.49 8.53011C103.32 8.36011 103.17 8.28011 103.04 8.14011C102.91 8.00011 102.75 7.87011 102.61 7.73011C102.47 7.59011 102.41 7.38011 102.22 7.29011C101.998 7.19982 101.766 7.13279 101.53 7.09011L100.98 6.99011C100.79 6.98011 100.6 6.98011 100.41 6.99011L100.17 6.79011L99.67 6.36011C99.5 6.22011 99.37 6.03011 99.2 5.89011C99.03 5.75011 98.7 5.78011 98.54 5.64011C98.38 5.50011 98.17 5.17011 97.91 5.06011C97.6324 4.98533 97.3473 4.94173 97.06 4.93011C96.84 4.93011 96.63 4.80011 96.41 4.77011C96.19 4.74011 95.97 4.67011 95.75 4.65011C95.53 4.63011 95.29 4.78011 95.08 4.77011C94.87 4.76011 94.63 4.66011 94.41 4.67011C94.19 4.68011 93.93 4.84011 93.69 4.88011C93.45 4.92011 93.19 4.94011 92.95 4.99011C92.71 5.04011 92.45 5.08011 92.21 5.15011C91.97 5.22011 91.75 5.34011 91.51 5.42011C91.27 5.50011 90.98 5.42011 90.75 5.49011C90.52 5.56011 90.3 5.72011 90.06 5.81011C89.82 5.90011 89.61 6.03011 89.38 6.12011C89.15 6.21011 88.95 6.22011 88.74 6.31011C88.53 6.40011 88.3 6.41011 88.1 6.50011C87.9 6.59011 87.73 6.73011 87.53 6.83011C87.33 6.93011 87.1 7.07011 86.87 7.16011C86.64 7.25011 86.44 7.44011 86.21 7.51011C85.98 7.58011 85.7 7.51011 85.46 7.58011C85.22 7.65011 84.97 7.58011 84.72 7.64011C84.47 7.70011 84.25 7.78011 84 7.81011C83.75 7.84011 83.52 7.99011 83.27 8.00011C83.02 8.01011 82.78 7.89011 82.54 7.87011C82.3 7.85011 82.03 7.87011 81.79 7.87011C81.55 7.87011 81.35 7.57011 81.12 7.50011C80.89 7.43011 80.68 7.35011 80.44 7.27011C80.2 7.19011 79.95 7.16011 79.76 7.02011C79.57 6.88011 79.43 6.67011 79.24 6.53011C79.05 6.39011 78.89 6.20011 78.7 6.05011C78.51 5.90011 78.3 5.80011 78.11 5.65011C77.92 5.50011 77.77 5.33011 77.58 5.18011C77.39 5.03011 77.29 4.79011 77.11 4.64011C76.8819 4.46299 76.6412 4.30257 76.39 4.16011C76.15 4.01011 75.92 3.83011 75.67 3.69011C75.42 3.55011 75.2 3.69011 74.99 3.60011C74.78 3.51011 74.58 3.35011 74.36 3.34011C74.1336 3.32513 73.9064 3.32513 73.68 3.34011C73.49 3.34011 73.33 3.56011 73.14 3.60011C72.95 3.64011 72.73 3.53011 72.55 3.60011C72.37 3.67011 72.2 3.93011 71.99 4.00011L71.37 4.24011C71.16 4.31011 70.92 4.24011 70.71 4.36011C70.5 4.48011 70.27 4.45011 70.07 4.54011C69.87 4.63011 69.75 4.91011 69.55 5.01011C69.3368 5.06621 69.1265 5.13296 68.92 5.21011C68.69 5.33011 68.5 5.51011 68.27 5.61011C68.04 5.71011 67.75 5.68011 67.52 5.77011C67.29 5.86011 67.08 6.06011 66.84 6.13011C66.6 6.20011 66.35 6.24011 66.1 6.30011C65.85 6.36011 65.59 6.30011 65.34 6.36011C65.09 6.42011 64.87 6.59011 64.63 6.64011C64.39 6.69011 64.23 6.70011 64 6.70011C63.77 6.70011 63.65 6.70011 63.46 6.70011C63.27 6.70011 63 6.70011 62.76 6.70011C62.52 6.70011 62.32 6.42011 62.09 6.39011C61.86 6.36011 61.62 6.46011 61.39 6.39011C61.16 6.32011 60.96 6.20011 60.74 6.15011C60.52 6.10011 60.26 6.15011 60.04 6.09011C59.82 6.03011 59.59 5.95011 59.38 5.86011C59.17 5.77011 59.04 5.50011 58.83 5.40011C58.62 5.30011 58.39 5.25011 58.19 5.14011L57.6 4.78011C57.41 4.65011 57.13 4.64011 56.93 4.51011C56.73 4.38011 56.55 4.22011 56.35 4.10011C56.15 3.98011 55.94 3.68011 55.68 3.56011C55.4075 3.47461 55.1252 3.42421 54.84 3.41011C54.59 3.35011 54.36 3.13011 54.11 3.10011C53.8455 3.10018 53.5814 3.12024 53.32 3.16011C53.0606 3.13514 52.7994 3.13514 52.54 3.16011C52.2776 3.17711 52.0169 3.21389 51.76 3.27011C51.56 3.34011 51.38 3.47011 51.18 3.54011C50.98 3.61011 50.79 3.73011 50.59 3.80011C50.39 3.87011 50.17 3.87011 49.97 3.94011C49.77 4.01011 49.61 4.23011 49.41 4.29011C49.21 4.35011 48.95 4.37011 48.73 4.45011L48.08 4.70011C47.86 4.79011 47.62 4.79011 47.4 4.87011C47.18 4.95011 47.02 5.21011 46.81 5.28011C46.6 5.35011 46.29 5.19011 46.07 5.28011C45.85 5.37011 45.66 5.56011 45.43 5.60011C45.2 5.64011 45 5.70011 44.75 5.70011C44.5 5.70011 44.29 5.57011 44.06 5.58011H43.38C43.16 5.58011 42.95 5.58011 42.71 5.58011C42.47 5.58011 42.25 5.47011 42.01 5.40011C41.77 5.33011 41.53 5.29011 41.29 5.23011C41.05 5.17011 40.83 5.02011 40.59 4.97011C40.35 4.92011 40.1 4.91011 39.86 4.85011C39.62 4.79011 39.33 4.85011 39.09 4.85011C38.85 4.85011 38.71 4.45011 38.48 4.36011C38.2369 4.29145 37.9897 4.23802 37.74 4.20011C37.4981 4.11417 37.2509 4.04402 37 3.99011C36.76 3.99011 36.5 3.99011 36.26 3.93011C36.02 3.87011 35.77 4.07011 35.52 4.09011C35.2774 4.12229 35.037 4.16904 34.8 4.23011C34.55 4.23011 34.26 4.11011 33.97 4.17011L33.18 4.34011C32.98 4.44011 32.87 4.72011 32.68 4.82011C32.49 4.92011 32.3 5.03011 32.11 5.12011L31.53 5.41011C31.34 5.51011 31.12 5.54011 30.93 5.64011C30.74 5.74011 30.48 5.64011 30.28 5.78011C30.08 5.92011 29.87 6.03011 29.66 6.14011C29.45 6.25011 29.22 6.32011 29.01 6.42011C28.8 6.52011 28.67 6.81011 28.45 6.91011C28.23 7.01011 28.02 7.11011 27.8 7.19011C27.58 7.27011 27.31 7.19011 27.08 7.28011C26.85 7.37011 26.51 7.48011 26.14 7.56011C25.77 7.64011 25.65 7.56011 25.42 7.56011C25.19 7.56011 24.94 7.56011 24.71 7.56011C24.48 7.56011 24.24 7.56011 24 7.56011C23.76 7.56011 23.53 7.78011 23.29 7.77011C23.05 7.76011 22.82 7.64011 22.59 7.62011C22.36 7.60011 22.11 7.62011 21.87 7.62011C21.63 7.62011 21.47 7.47011 21.26 7.45011C21.05 7.43011 20.83 7.45011 20.62 7.45011C20.4103 7.4009 20.2034 7.34082 20 7.27011C19.7961 7.20388 19.5959 7.12711 19.4 7.04011C19.16 6.95011 18.89 6.96011 18.66 6.86011C18.43 6.76011 18.25 6.54011 18.02 6.43011C17.79 6.32011 17.6 6.14011 17.38 6.02011C17.16 5.90011 16.93 5.80011 16.71 5.67011C16.49 5.54011 16.3 5.38011 16.09 5.24011C15.88 5.10011 15.55 5.14011 15.34 4.99011C15.13 4.84011 15 4.70011 14.81 4.52011C14.62 4.34011 14.45 4.21011 14.25 4.08011C14.05 3.95011 13.78 3.95011 13.58 3.83011C13.38 3.71011 13.26 3.44011 13.06 3.32011C12.8415 3.16239 12.6068 3.02831 12.36 2.92011C12.0964 2.86994 11.8281 2.84982 11.56 2.86011C11.2993 2.88687 11.0416 2.93707 10.79 3.01011C10.55 3.01011 10.26 2.92011 9.99999 3.01011C9.73028 3.1003 9.46644 3.20717 9.20999 3.33011C8.94881 3.45482 8.70088 3.60559 8.46999 3.78011C8.26999 3.93011 8.12999 4.16011 7.92999 4.31011C7.72999 4.46011 7.56999 4.68011 7.36999 4.83011C7.16999 4.98011 6.91999 5.07011 6.70999 5.21011C6.49999 5.35011 6.32999 5.52011 6.12999 5.66011C5.92999 5.80011 5.68999 5.88011 5.48999 6.00011C5.28999 6.12011 5.01999 6.17011 4.80999 6.29011C4.59999 6.41011 4.45999 6.66011 4.23999 6.76011C4.01999 6.86011 3.76999 6.91011 3.54999 7.01011C3.32999 7.11011 3.10999 7.24011 2.87999 7.31011C2.64999 7.38011 2.37999 7.31011 2.13999 7.36011C1.89999 7.41011 1.80999 7.58011 1.62999 7.64011C1.35424 7.74688 1.12915 7.95411 0.99999 8.22011C0.895349 8.49378 0.895349 8.79644 0.99999 9.07011C1.11059 9.32755 1.29063 9.54915 1.51999 9.71011C1.72502 9.90153 1.98283 10.0269 2.25999 10.0701C2.43999 10.0701 2.63999 10.2501 2.82999 10.2401C3.02318 10.2122 3.21379 10.1687 3.39999 10.1101C3.63372 10.0654 3.86422 10.0053 4.08999 9.93011C4.31808 9.86808 4.54189 9.79125 4.75999 9.70011C4.97999 9.61011 5.20999 9.52011 5.41999 9.41011C5.62999 9.30011 5.74999 9.04011 5.93999 8.90011C6.12999 8.76011 6.41999 8.68011 6.62999 8.52011C6.83999 8.36011 6.96999 8.11011 7.17999 7.95011C7.38999 7.79011 7.62999 7.68011 7.83999 7.53011C8.04999 7.38011 8.23999 7.21011 8.45999 7.05011C8.67999 6.89011 8.95999 6.80011 9.19999 6.65011C9.43999 6.50011 9.69999 6.38011 9.94999 6.24011C10.1448 6.11196 10.3527 6.0047 10.57 5.92011C10.7982 5.85754 11.0334 5.82394 11.27 5.82011C11.5034 5.8635 11.7291 5.94099 11.94 6.05011C12.16 6.12011 12.44 6.05011 12.65 6.19011C12.86 6.33011 12.91 6.61011 13.1 6.73011C13.29 6.85011 13.57 6.80011 13.76 6.92011C13.95 7.04011 14.09 7.23011 14.27 7.35011L14.88 7.74011C15.09 7.88011 15.35 7.92011 15.55 8.05011C15.75 8.18011 15.88 8.44011 16.08 8.57011C16.28 8.70011 16.58 8.68011 16.79 8.80011C17 8.92011 17.13 9.22011 17.35 9.32011C17.57 9.42011 17.86 9.32011 18.08 9.42011C18.3 9.52011 18.55 9.55011 18.77 9.63011L19.46 9.85011C19.68 9.93011 19.86 10.1601 20.09 10.2301C20.3361 10.3054 20.5865 10.3655 20.84 10.4101C21.0963 10.4303 21.3537 10.4303 21.61 10.4101C21.8616 10.4467 22.1157 10.4634 22.37 10.4601C22.63 10.4601 22.87 10.2901 23.12 10.2801C23.37 10.2701 23.62 10.1501 23.87 10.1401C24.12 10.1301 24.38 10.2101 24.63 10.1401L25.35 10.0601C25.59 10.0601 25.84 10.0601 26.08 10.0101C26.32 9.96011 26.54 9.80011 26.78 9.76011C27.02 9.72011 27.28 9.82011 27.52 9.76011C27.76 9.70011 27.96 9.50011 28.19 9.44011C28.42 9.38011 28.67 9.35011 28.91 9.29011C29.15 9.23011 29.43 9.35011 29.66 9.29011C29.8814 9.19276 30.0954 9.07911 30.3 8.95011C30.52 8.85011 30.71 8.70011 30.92 8.59011C31.13 8.48011 31.36 8.51011 31.55 8.41011C31.74 8.31011 31.81 8.01011 32 7.91011C32.19 7.81011 32.36 7.69011 32.55 7.59011C32.74 7.49011 32.96 7.45011 33.15 7.36011C33.3681 7.26048 33.5918 7.17366 33.82 7.10011C34.0404 7.01379 34.2679 6.94687 34.5 6.90011C34.7336 6.84986 34.9712 6.81975 35.21 6.81011C35.4482 6.7732 35.689 6.75647 35.93 6.76011C36.15 6.76011 36.35 6.95011 36.57 6.97011C36.79 6.99011 37.03 6.90011 37.25 6.97011C37.47 7.04011 37.67 7.15011 37.88 7.19011C38.09 7.23011 38.34 7.19011 38.56 7.19011L39.21 7.35011C39.42 7.42011 39.57 7.65011 39.78 7.73011C39.99 7.81011 40.27 7.73011 40.5 7.80011C40.73 7.87011 40.95 7.91011 41.18 7.96011C41.41 8.01011 41.6 8.27011 41.84 8.30011C42.08 8.33011 42.33 8.18011 42.56 8.20011C42.79 8.22011 43.03 8.25011 43.27 8.26011C43.51 8.27011 43.73 8.20011 43.97 8.19011C44.21 8.18011 44.46 8.34011 44.71 8.32011C44.96 8.30011 45.18 8.16011 45.42 8.14011C45.66 8.12011 45.9 8.07011 46.14 8.03011C46.38 7.99011 46.63 8.03011 46.86 7.96011C47.09 7.89011 47.38 8.02011 47.62 7.96011C47.86 7.90011 48.05 7.69011 48.28 7.61011C48.5213 7.59714 48.7617 7.57043 49 7.53011C49.19 7.45011 49.36 7.32011 49.56 7.23011C49.76 7.14011 49.89 6.92011 50.08 6.84011C50.27 6.76011 50.5 6.74011 50.7 6.65011C50.9 6.56011 51.1 6.51011 51.3 6.43011C51.5 6.35011 51.67 6.35011 51.84 6.27011C52.01 6.19011 52.16 6.06011 52.34 5.99011C52.5866 5.91044 52.8416 5.8601 53.1 5.84011C53.3508 5.75193 53.6142 5.70466 53.88 5.70011C54.12 5.70011 54.31 5.95011 54.57 6.06011C54.83 6.17011 55.1 6.22011 55.33 6.38011C55.56 6.54011 55.71 6.78011 55.93 6.94011C56.15 7.10011 56.42 7.19011 56.65 7.35011C56.88 7.51011 56.98 7.71011 57.18 7.83011C57.38 7.95011 57.61 8.03011 57.82 8.14011C58.03 8.25011 58.25 8.34011 58.47 8.43011C58.69 8.52011 58.91 8.61011 59.13 8.68011C59.35 8.75011 59.7 8.77011 59.97 8.87011C60.24 8.97011 60.49 9.10011 60.76 9.18011C60.9995 9.25193 61.2433 9.30871 61.49 9.35011C61.7386 9.38498 61.989 9.40502 62.24 9.41011C62.4879 9.40999 62.7353 9.38993 62.98 9.35011C63.21 9.35011 63.45 9.41011 63.68 9.35011L64.36 9.21011C64.59 9.21011 64.83 9.21011 65.05 9.14011C65.27 9.07011 65.47 8.87011 65.69 8.82011C65.91 8.77011 66.18 8.82011 66.4 8.82011C66.62 8.82011 66.87 8.82011 67.09 8.71011C67.31 8.60011 67.51 8.49011 67.72 8.41011C67.93 8.33011 68.2 8.34011 68.41 8.25011C68.62 8.16011 68.72 7.82011 68.92 7.71011C69.12 7.60011 69.39 7.65011 69.59 7.56011C69.79 7.47011 69.97 7.34011 70.18 7.26011C70.39 7.18011 70.6 7.13011 70.81 7.05011C71.02 6.97011 71.17 6.75011 71.38 6.68011C71.59 6.61011 71.83 6.68011 72.04 6.57011L72.67 6.37011C72.914 6.25816 73.1686 6.17105 73.43 6.11011C73.6992 6.08022 73.9708 6.08022 74.24 6.11011C74.4963 6.18869 74.7416 6.29958 74.97 6.44011C75.2159 6.53394 75.4506 6.65467 75.67 6.80011C75.9 6.96011 76.03 7.26011 76.25 7.43011C76.47 7.60011 76.69 7.79011 76.9 7.98011C77.11 8.17011 77.42 8.11011 77.61 8.26011C77.8 8.41011 77.99 8.55011 78.19 8.68011C78.39 8.81011 78.51 9.09011 78.72 9.21011C78.93 9.33011 79.24 9.27011 79.46 9.37011C79.68 9.47011 79.84 9.70011 80.07 9.79011C80.3 9.88011 80.56 9.79011 80.8 9.91011C81.04 10.0301 81.2 10.2701 81.44 10.3301C81.68 10.3901 81.82 10.4201 82.07 10.4601C82.32 10.5001 82.53 10.2801 82.76 10.2701C82.99 10.2601 83.21 10.4301 83.44 10.4201C83.67 10.4101 83.88 10.2601 84.11 10.2501C84.34 10.2401 84.58 10.3701 84.8 10.3701C85.02 10.3701 85.13 10.0101 85.31 9.95011C85.49 9.89011 85.72 9.95011 85.9 9.86011C86.08 9.77011 86.27 9.68011 86.46 9.63011C86.65 9.58011 86.95 9.77011 87.16 9.71011C87.37 9.65011 87.6 9.62011 87.81 9.55011C88.02 9.48011 88.2 9.32011 88.41 9.25011C88.62 9.18011 88.78 8.98011 88.98 8.90011C89.18 8.82011 89.47 8.90011 89.68 8.90011C89.89 8.90011 89.98 8.52011 90.18 8.42011C90.38 8.32011 90.6 8.25011 90.8 8.17011L91.43 7.95011C91.64 7.88011 91.91 7.95011 92.12 7.95011C92.33 7.95011 92.55 7.78011 92.77 7.71011C92.99 7.64011 93.22 7.57011 93.45 7.52011C93.68 7.47011 93.91 7.45011 94.15 7.41011L94.84 7.30011C95.08 7.30011 95.31 7.06011 95.54 7.08011C95.7819 7.11187 96.0199 7.16885 96.25 7.25011C96.489 7.29645 96.721 7.37377 96.94 7.48011C97.14 7.59011 97.22 7.88011 97.41 8.05011C97.6 8.22011 97.78 8.29011 97.95 8.43011C98.12 8.57011 98.26 8.74011 98.43 8.89011C98.6 9.04011 98.79 9.15011 98.96 9.29011C99.1428 9.43807 99.3367 9.5718 99.54 9.69011C99.6557 9.75953 99.7801 9.81333 99.91 9.85011L100.03 9.93011C100.2 10.0501 100.37 10.1801 100.56 10.2901C100.75 10.4001 101 10.4601 101.2 10.5601C101.4 10.6601 101.67 10.6801 101.87 10.7801L102.46 11.0801C102.67 11.1701 102.89 11.2301 103.1 11.3201C103.31 11.4101 103.48 11.5501 103.69 11.6301L104.35 11.8401C104.579 11.9238 104.813 11.9939 105.05 12.0501C105.285 12.1352 105.526 12.2053 105.77 12.2601C106.028 12.2483 106.285 12.2216 106.54 12.1801C106.796 12.1951 107.054 12.1951 107.31 12.1801C107.55 12.1801 107.74 11.9601 107.99 11.9001C108.24 11.8401 108.52 11.9001 108.75 11.8101L109.51 11.5301L110.25 11.2201C110.45 11.1401 110.53 10.9201 110.72 10.8301L111.3 10.5701C111.48 10.4701 111.81 10.5101 111.99 10.4101C112.17 10.3101 112.23 10.0801 112.41 9.98011C112.59 9.88011 112.81 9.81011 112.99 9.71011C113.17 9.61011 113.29 9.45011 113.48 9.35011C113.67 9.25011 113.96 9.27011 114.15 9.18011C114.34 9.09011 114.56 8.95011 114.75 8.83011C114.94 8.71011 115.07 8.55011 115.25 8.42011C115.43 8.29011 115.7 8.24011 115.89 8.11011C116.08 7.98011 116.06 7.74011 116.24 7.63011C116.456 7.53719 116.681 7.46357 116.91 7.41011C117.171 7.30134 117.448 7.23386 117.73 7.21011C118.015 7.2208 118.295 7.29241 118.55 7.42011C118.746 7.50468 118.936 7.60154 119.12 7.71011C119.31 7.82011 119.45 7.96011 119.63 8.07011C119.81 8.18011 120.13 8.20011 120.33 8.32011C120.53 8.44011 120.58 8.68011 120.79 8.78011C121.036 8.85079 121.287 8.90426 121.54 8.94011C121.75 9.01011 121.88 9.21011 122.09 9.28011C122.3 9.35011 122.58 9.34011 122.79 9.41011C123 9.48011 123.15 9.66011 123.36 9.73011L124 9.95011C124.279 10.0204 124.563 10.0706 124.85 10.1001C125.133 10.1155 125.417 10.1155 125.7 10.1001C125.95 10.1001 126.2 10.1001 126.42 10.1001H127.15C127.4 10.1001 127.64 10.2601 127.87 10.2501C128.1 10.2401 128.36 10.1601 128.59 10.1501C128.82 10.1401 129.08 10.1501 129.32 10.1501C129.56 10.1501 129.76 9.99011 130 9.94011L130.7 9.79011C130.91 9.74011 131.19 9.79011 131.43 9.73011L132.13 9.58011C132.4 9.51011 132.64 9.39011 132.9 9.32011C133.16 9.25011 133.42 9.26011 133.65 9.19011C133.88 9.12011 134 8.87011 134.23 8.79011L134.88 8.53011C135.09 8.43011 135.4 8.44011 135.62 8.35011C135.84 8.26011 136.06 8.18011 136.28 8.08011C136.5 7.98011 136.58 7.74011 136.79 7.65011C137 7.56011 137.33 7.58011 137.54 7.49011C137.75 7.40011 137.94 7.26011 138.15 7.16011L138.79 6.87011C138.95 6.80011 139.11 6.71011 139.28 6.65011C139.47 6.62756 139.661 6.67367 139.82 6.78011L140.26 7.03011L140.68 7.29011C140.87 7.41189 141.067 7.52209 141.27 7.62011C141.46 7.73011 141.62 7.88011 141.82 7.98011L142.45 8.27011C142.67 8.35011 142.95 8.34011 143.17 8.42011C143.39 8.50011 143.65 8.51011 143.88 8.58011C144.121 8.70062 144.372 8.80096 144.63 8.88011C144.913 8.9002 145.197 8.9002 145.48 8.88011C145.72 8.88011 145.95 8.97011 146.19 8.96011C146.43 8.95011 146.68 8.96011 146.91 8.96011C147.129 8.89155 147.343 8.80802 147.55 8.71011C147.77 8.66011 148.02 8.66011 148.24 8.59011C148.46 8.52011 148.61 8.36011 148.83 8.28011C149.05 8.20011 149.34 8.28011 149.55 8.19011C149.76 8.10011 149.87 7.92011 150.08 7.84011C150.29 7.76011 150.55 7.78011 150.76 7.70011L151.36 7.47011C151.56 7.39011 151.72 7.25011 151.92 7.17011C152.12 7.09011 152.36 7.06011 152.56 6.98011C152.76 6.90011 152.86 6.69011 153.05 6.61011C153.24 6.53011 153.46 6.45011 153.65 6.36011C153.88 6.29479 154.114 6.24468 154.35 6.21011C154.562 6.10942 154.783 6.02906 155.01 5.97011C155.253 5.95016 155.497 5.95016 155.74 5.97011C155.97 5.97011 156.15 6.17011 156.39 6.22011L156.98 6.47011C157.2 6.56011 157.42 6.62011 157.6 6.69011C157.78 6.76011 158.01 6.88011 158.2 6.94011C158.39 7.00011 158.72 6.94011 158.92 7.00011C159.12 7.06011 159.25 7.27011 159.49 7.33011C159.73 7.39011 159.96 7.33011 160.2 7.33011C160.44 7.33011 160.63 7.33011 160.88 7.44011C161.13 7.55011 161.26 7.62011 161.51 7.67011C161.76 7.72011 161.98 7.62011 162.22 7.67011C162.46 7.72011 162.68 7.83011 162.92 7.84011H164.33C164.57 7.84011 164.81 7.84011 165.04 7.84011C165.27 7.84011 165.52 7.84011 165.75 7.84011H166.46C166.7 7.84011 166.93 7.77011 167.16 7.77011C167.39 7.77011 167.63 7.71011 167.87 7.70011C168.11 7.69011 168.42 7.60011 168.7 7.58011C168.98 7.56011 169.29 7.65011 169.56 7.58011C169.83 7.51011 170.06 7.58011 170.29 7.58011C170.52 7.58011 170.73 7.40011 170.97 7.36011C171.21 7.32011 171.41 7.19011 171.65 7.14011C171.89 7.09011 172.15 7.14011 172.38 7.14011L173.09 7.01011C173.33 7.01011 173.59 7.01011 173.82 6.95011C174.05 6.89011 174.27 6.81011 174.51 6.76011C174.75 6.71011 174.95 6.62011 175.19 6.58011C175.43 6.54011 175.68 6.58011 175.92 6.52011L176.62 6.40011C176.85 6.40011 177.03 6.14011 177.26 6.10011C177.49 6.06011 177.79 6.18011 178.02 6.10011C178.25 6.02011 178.47 5.96011 178.71 5.92011C178.95 5.88011 179.19 5.92011 179.42 5.84011C179.65 5.76011 179.87 5.68011 180.1 5.63011L180.8 5.50011C181.04 5.50011 181.27 5.34011 181.51 5.31011C181.76 5.29554 182.01 5.29554 182.26 5.31011C182.5 5.31011 182.74 5.31011 182.99 5.31011C183.236 5.29511 183.484 5.29511 183.73 5.31011C183.97 5.31011 184.24 5.31011 184.47 5.38011C184.7 5.45011 184.87 5.62011 185.09 5.67011C185.31 5.72011 185.56 5.73011 185.79 5.78011C186.02 5.83011 186.27 5.78011 186.5 5.83011L187.19 5.94011C187.42 5.94011 187.65 6.02011 187.88 6.06011C188.11 6.10011 188.31 6.23011 188.54 6.28011C188.77 6.33011 189 6.43011 189.24 6.45011C189.49 6.46527 189.74 6.46527 189.99 6.45011C190.238 6.49159 190.489 6.5183 190.74 6.53011C190.98 6.53011 191.23 6.45011 191.47 6.42011C191.71 6.39011 191.9 6.21011 192.13 6.15011C192.36 6.09011 192.73 6.15011 193 6.09011C193.27 6.03011 193.52 5.92011 193.78 5.85011C194.04 5.78011 194.28 5.79011 194.51 5.73011C194.74 5.67011 194.91 5.49011 195.13 5.42011C195.35 5.35011 195.58 5.27011 195.81 5.20011C196.04 5.13011 196.24 5.03011 196.46 4.96011C196.68 4.89011 196.96 4.90011 197.19 4.83011C197.439 4.79433 197.681 4.72363 197.91 4.62011C198.1 4.49011 198.13 4.27011 198.23 4.10011C198.349 3.94985 198.425 3.77014 198.45 3.58011C198.442 3.39864 198.371 3.22559 198.25 3.09011C198.097 2.95086 197.916 2.84526 197.72 2.78011Z" fill="#D99C91"></path><path d="M376.26 5.08011C376.166 4.82153 376 4.59572 375.78 4.43011C375.607 4.34718 375.443 4.24665 375.29 4.13011C375.13 4.03011 374.87 4.04011 374.72 3.92011C374.57 3.80011 374.47 3.55011 374.31 3.41011C374.15 3.27011 374.01 3.09011 373.84 2.95011C373.65 2.82573 373.449 2.71863 373.24 2.63011C373.09 2.54011 372.98 2.38011 372.82 2.33011C372.641 2.3057 372.459 2.3057 372.28 2.33011C372.1 2.33011 371.9 2.21011 371.72 2.25011C371.54 2.29011 371.44 2.51011 371.28 2.55011C371.12 2.59011 370.92 2.55011 370.76 2.55011C370.6 2.55011 370.48 2.76011 370.32 2.80011C370.16 2.84011 369.89 2.80011 369.73 2.93011C369.57 3.06011 369.48 3.24011 369.32 3.34011L368.85 3.65011C368.68 3.74011 368.45 3.75011 368.29 3.84011C368.13 3.93011 368.06 4.14011 367.9 4.22011C367.74 4.30011 367.5 4.22011 367.34 4.33011C367.18 4.44011 367.05 4.54011 366.89 4.62011L366.39 4.83011C366.23 4.89011 366.06 4.97011 365.89 5.02011C365.72 5.07011 365.58 5.22011 365.41 5.27011C365.24 5.32011 365.03 5.27011 364.86 5.36011C364.69 5.45011 364.48 5.36011 364.31 5.42011C364.14 5.48011 363.97 5.56011 363.8 5.61011C363.63 5.66011 363.47 5.77011 363.3 5.82011C363.13 5.87011 362.98 5.99011 362.8 6.04011L362.27 6.17011C362.1 6.17011 361.89 6.17011 361.72 6.17011L361.21 6.35011C361.03 6.35011 360.88 6.50011 360.7 6.55011C360.531 6.61192 360.357 6.65876 360.18 6.69011C360 6.705 359.82 6.705 359.64 6.69011C359.461 6.70865 359.28 6.712 359.1 6.70011L358.44 6.52011C358.245 6.45746 358.057 6.37362 357.88 6.27011C357.7 6.19011 357.58 6.01011 357.42 5.90011C357.26 5.78884 357.106 5.66865 356.96 5.54011C356.82 5.41011 356.57 5.36011 356.44 5.23011C356.31 5.10011 356.31 4.85011 356.19 4.70011C356.07 4.55011 355.97 4.39011 355.87 4.24011C355.77 4.09011 355.52 4.00011 355.4 3.85011C355.28 3.70011 355.16 3.57011 355.02 3.43011C354.88 3.29011 354.76 3.16011 354.6 3.03011C354.42 2.88643 354.217 2.7748 354 2.70011C353.779 2.63538 353.55 2.60172 353.32 2.60011C353.085 2.58614 352.85 2.60295 352.62 2.65011C352.411 2.74104 352.218 2.86607 352.05 3.02011C351.89 3.13011 351.69 3.18011 351.53 3.29011C351.37 3.40011 351.22 3.51011 351.06 3.62011C350.9 3.73011 350.8 3.91011 350.65 4.02011C350.5 4.13011 350.29 4.18011 350.14 4.29011C349.99 4.40011 349.88 4.59011 349.72 4.69011C349.56 4.79011 349.28 4.84011 349.09 4.96011C348.9 5.08011 348.78 5.29011 348.58 5.39011C348.38 5.49011 348.18 5.39011 348.03 5.46011C347.88 5.53011 347.76 5.67011 347.6 5.74011C347.44 5.81011 347.3 5.89011 347.14 5.95011C346.98 6.01011 346.81 6.05011 346.65 6.11011C346.49 6.17011 346.35 6.29011 346.18 6.34011C346.01 6.39011 345.81 6.27011 345.62 6.34011C345.43 6.41011 345.27 6.46011 345.09 6.47011C344.91 6.48011 344.73 6.41011 344.54 6.39011C344.36 6.40426 344.18 6.40426 344 6.39011C343.874 6.35488 343.753 6.30451 343.64 6.24011C343.639 6.11908 343.611 5.99975 343.56 5.89011C343.389 5.67166 343.174 5.49117 342.93 5.36011C342.744 5.221 342.567 5.07072 342.4 4.91011C342.208 4.78138 342.025 4.64112 341.85 4.49011C341.69 4.33011 341.68 4.03011 341.54 3.85011C341.4 3.67011 341.11 3.60011 340.98 3.41011C340.85 3.22011 340.78 3.00011 340.67 2.79011C340.564 2.52585 340.422 2.27698 340.25 2.05011C340.05 1.84011 339.73 1.82011 339.48 1.69011C339.23 1.56011 339.03 1.25011 338.74 1.22011C338.45 1.19011 338.28 1.41011 338.06 1.41011C337.848 1.4164 337.637 1.44319 337.43 1.49011C337.22 1.49011 336.94 1.41011 336.74 1.49011C336.54 1.57011 336.37 1.72011 336.18 1.81011C335.99 1.90011 335.81 2.02011 335.62 2.11011C335.43 2.20011 335.21 2.24011 335.02 2.32011L334.44 2.60011L333.78 2.84011L333.11 3.08011C332.89 3.16011 332.68 3.29011 332.46 3.37011C332.24 3.45011 332.08 3.68011 331.86 3.77011C331.64 3.86011 331.34 3.77011 331.12 3.77011C330.9 3.77011 330.69 3.99011 330.46 4.05011C330.23 4.11011 330.02 4.25011 329.79 4.30011C329.56 4.35011 329.31 4.30011 329.08 4.30011C328.85 4.30011 328.61 4.30011 328.37 4.36011C328.13 4.42011 327.92 4.55011 327.69 4.58011C327.441 4.60471 327.189 4.60471 326.94 4.58011C326.687 4.56873 326.436 4.53188 326.19 4.47011C325.955 4.38192 325.728 4.27491 325.51 4.15011C325.33 4.01186 325.16 3.86151 325 3.70011C324.8 3.56011 324.48 3.56011 324.3 3.38011C324.12 3.20011 324 2.88011 323.8 2.70011C323.6 2.52011 323.46 2.24011 323.26 2.04011C323.029 1.86498 322.785 1.70785 322.53 1.57011C322.35 1.43011 322.22 1.21011 322.03 1.12011C321.812 1.06015 321.586 1.02988 321.36 1.03011C321.15 1.03011 320.9 0.850109 320.68 0.890109C320.46 0.930109 320.31 1.22011 320.1 1.27011C319.89 1.32011 319.65 1.27011 319.45 1.27011C319.25 1.27011 319.09 1.53011 318.89 1.58011C318.69 1.63011 318.35 1.58011 318.14 1.72011C317.93 1.86011 317.82 2.13011 317.61 2.25011C317.4 2.37011 317.2 2.52011 317 2.64011C316.8 2.76011 316.5 2.75011 316.29 2.87011C316.08 2.99011 315.98 3.25011 315.78 3.36011C315.58 3.47011 315.27 3.36011 315.07 3.47011C314.87 3.58011 314.7 3.75011 314.49 3.84011L313.86 4.09011C313.65 4.17011 313.44 4.26011 313.22 4.32011C313 4.38011 312.82 4.57011 312.6 4.63011C312.38 4.69011 312.13 4.63011 311.92 4.71011C311.71 4.79011 311.44 4.71011 311.22 4.71011C311 4.71011 310.8 4.87011 310.58 4.93011C310.36 4.99011 310.16 5.13011 309.94 5.19011C309.72 5.25011 309.53 5.39011 309.31 5.45011C309.09 5.51011 308.86 5.54011 308.64 5.60011C308.42 5.66011 308.17 5.60011 307.95 5.60011C307.73 5.60011 307.52 5.76011 307.3 5.81011C307.08 5.86011 306.88 5.99011 306.66 6.05011C306.446 6.12374 306.225 6.17404 306 6.20011C305.774 6.22006 305.546 6.22006 305.32 6.20011C305.096 6.1588 304.876 6.10199 304.66 6.03011L303.85 5.75011C303.612 5.64537 303.384 5.51812 303.17 5.37011C302.95 5.25011 302.82 4.99011 302.63 4.82011C302.438 4.66325 302.258 4.49281 302.09 4.31011C301.92 4.12011 301.61 4.04011 301.46 3.85011C301.31 3.66011 301.33 3.32011 301.19 3.11011C301.055 2.89694 300.931 2.67662 300.82 2.45011C300.7 2.23011 300.41 2.11011 300.27 1.90011C300.135 1.69201 299.988 1.49169 299.83 1.30011C299.677 1.10106 299.514 0.910762 299.34 0.730109C299.148 0.519591 298.922 0.343686 298.67 0.210109C298.402 0.103405 298.118 0.0425554 297.83 0.0301094C297.538 -0.0100365 297.242 -0.0100365 296.95 0.0301094C296.682 0.149697 296.432 0.308054 296.21 0.500109C296.01 0.640109 295.75 0.700109 295.55 0.830109C295.35 0.960109 295.15 1.12011 294.95 1.26011C294.75 1.40011 294.6 1.63011 294.4 1.77011C294.2 1.91011 293.95 1.98011 293.74 2.12011C293.53 2.26011 293.41 2.50011 293.2 2.64011C292.99 2.78011 292.64 2.81011 292.4 2.96011C292.16 3.11011 291.98 3.39011 291.73 3.51011C291.48 3.63011 291.24 3.51011 291.04 3.57011C290.863 3.69609 290.679 3.81291 290.49 3.92011C290.29 4.01011 290.1 4.10011 289.89 4.18011C289.68 4.26011 289.48 4.30011 289.27 4.37011C289.078 4.47022 288.881 4.56034 288.68 4.64011C288.46 4.64011 288.22 4.53011 287.99 4.54011C287.767 4.60113 287.539 4.64789 287.31 4.68011C287.083 4.65171 286.859 4.60488 286.64 4.54011C286.415 4.52907 286.19 4.49896 285.97 4.45011C285.772 4.36238 285.581 4.25871 285.4 4.14011C285.26 4.00011 284.97 4.02011 284.8 3.86011C284.63 3.70011 284.65 3.40011 284.49 3.25011C284.33 3.10011 284.17 3.04011 284.03 2.91011C283.89 2.78011 283.69 2.73011 283.54 2.61011C283.499 2.53205 283.463 2.45195 283.43 2.37011C283.34 2.15011 283.31 1.81011 283.09 1.72011C282.87 1.63011 282.6 1.83011 282.4 1.94011C282.2 2.05011 281.88 2.15011 281.66 2.30011L280.96 2.72011C280.7 2.78011 280.46 2.88011 280.21 2.93011C279.96 2.98011 279.72 3.10011 279.47 3.15011C279.22 3.20011 278.92 3.03011 278.66 3.08011C278.393 3.16192 278.118 3.21555 277.84 3.24011C277.562 3.19144 277.293 3.10392 277.04 2.98011C276.84 2.91011 276.57 2.98011 276.37 2.90011C276.17 2.82011 276 2.70011 275.8 2.60011C275.6 2.50011 275.32 2.60011 275.12 2.49011C274.92 2.38011 274.9 1.97011 274.72 1.79011C274.54 1.61011 274.22 1.57011 274.04 1.39011C273.86 1.21011 273.76 0.950109 273.58 0.770109C273.342 0.6153 273.072 0.516176 272.79 0.480109C272.538 0.376679 272.271 0.315848 272 0.300109C271.807 0.285564 271.613 0.285564 271.42 0.300109C271.228 0.346365 271.044 0.416938 270.87 0.510109L270.29 0.820109C270.09 0.920109 269.97 1.17011 269.78 1.27011C269.59 1.37011 269.27 1.27011 269.08 1.36011C268.89 1.45011 268.73 1.64011 268.53 1.74011C268.33 1.84011 268.22 2.09011 268.02 2.20011C267.82 2.31011 267.55 2.20011 267.35 2.35011L266.76 2.64011C266.57 2.75011 266.44 2.99011 266.24 3.08011C266.04 3.17011 265.79 3.15011 265.59 3.24011C265.39 3.33011 265.26 3.59011 265.06 3.68011C264.86 3.77011 264.57 3.68011 264.36 3.68011C264.15 3.68011 263.98 3.92011 263.78 4.00011C263.61 4.08787 263.432 4.16145 263.25 4.22011C263.06 4.22011 262.86 4.16011 262.67 4.22011C262.486 4.27615 262.299 4.32288 262.11 4.36011C261.92 4.36011 261.74 4.17011 261.55 4.16011C261.36 4.15011 261.13 4.16011 260.92 4.16011C260.708 4.14825 260.498 4.12151 260.29 4.08011C260.08 4.04433 259.873 3.99421 259.67 3.93011C259.485 3.82633 259.308 3.70936 259.14 3.58011C258.95 3.46011 258.68 3.49011 258.48 3.38011C258.28 3.27011 258.18 3.01011 257.99 2.91011C257.8 2.81011 257.58 2.73011 257.38 2.64011C257.18 2.55011 256.91 2.51011 256.72 2.43011L256.07 2.18011C255.83 2.09011 255.6 2.09011 255.4 2.03011C255.181 1.96635 254.957 1.91954 254.73 1.89011C254.494 1.80153 254.249 1.73785 254 1.70011C253.77 1.68575 253.54 1.68575 253.31 1.70011C253.1 1.70011 252.86 1.70011 252.61 1.80011C252.36 1.90011 252.18 1.89011 251.93 1.96011L251.26 2.15011C250.99 2.23011 250.8 2.53011 250.54 2.64011C250.28 2.75011 249.98 2.79011 249.72 2.90011L249.1 3.19011C248.89 3.28011 248.73 3.46011 248.52 3.55011C248.31 3.64011 248.05 3.62011 247.85 3.71011C247.65 3.80011 247.39 3.80011 247.18 3.89011C246.97 3.98011 246.85 4.27011 246.64 4.36011C246.43 4.45011 246.15 4.36011 245.94 4.43011C245.73 4.50011 245.59 4.81011 245.38 4.89011C245.17 4.97011 244.93 4.99011 244.71 5.05011C244.49 5.11011 244.24 5.05011 244.02 5.05011C243.8 5.05011 243.61 5.30011 243.39 5.35011C243.17 5.40011 243.01 5.20011 242.67 5.18011C242.33 5.16011 242.15 5.11011 241.91 5.01011L241.17 4.73011C240.99 4.60011 240.88 4.37011 240.72 4.26011C240.56 4.15011 240.26 4.16011 240.09 4.04011C239.92 3.92011 239.84 3.65011 239.67 3.54011C239.5 3.43011 239.32 3.28011 239.14 3.18011C238.898 3.06855 238.642 2.98792 238.38 2.94011C238.118 2.90033 237.852 2.90033 237.59 2.94011C237.325 2.94342 237.062 2.98726 236.81 3.07011C236.581 3.19989 236.366 3.35412 236.17 3.53011C235.94 3.69011 235.7 3.83011 235.48 4.01011C235.26 4.19011 235.04 4.37011 234.83 4.57011C234.62 4.77011 234.43 4.87011 234.24 5.03011C234.05 5.19011 233.8 5.29011 233.6 5.44011C233.4 5.59011 233.29 5.88011 233.09 6.02011C232.89 6.16011 232.68 6.32011 232.46 6.45011C232.24 6.58011 232.02 6.70011 231.8 6.82011C231.58 6.94011 231.32 7.01011 231.1 7.12011C230.88 7.23011 230.64 7.27011 230.45 7.36011C230.26 7.45011 230.06 7.66011 229.87 7.74011C229.68 7.82011 229.45 8.01011 229.25 8.07011C229.021 8.13272 228.787 8.1762 228.55 8.20011C228.317 8.21392 228.083 8.21392 227.85 8.20011C227.64 8.20011 227.42 8.08011 227.17 8.06011C226.92 8.04011 226.72 8.19011 226.47 8.17011C226.22 8.15011 226.04 8.02011 225.83 7.99011C225.62 7.96011 225.4 7.82011 225.21 7.79011C225.02 7.76011 224.77 7.71011 224.57 7.62011C224.37 7.53011 224.22 7.33011 224.03 7.23011C223.84 7.13011 223.6 7.09011 223.41 6.99011C223.22 6.89011 223.03 6.75011 222.84 6.64011C222.65 6.53011 222.51 6.34011 222.33 6.22011C222.15 6.10011 221.91 6.05011 221.73 5.92011C221.55 5.79011 221.29 5.77011 221.11 5.64011C220.93 5.51011 220.74 5.19011 220.51 5.03011C220.28 4.87011 220.1 4.63011 219.88 4.45011C219.66 4.27011 219.41 4.22011 219.19 4.09011C218.968 3.96742 218.737 3.86049 218.5 3.77011C218.27 3.67011 218 3.69011 217.75 3.61011C217.521 3.51144 217.288 3.42466 217.05 3.35011C216.71 3.35011 216.45 3.47011 216.17 3.52011C215.89 3.57011 215.68 3.43011 215.47 3.52011C215.26 3.61011 215.05 3.72011 214.84 3.80011C214.63 3.88011 214.46 4.04011 214.26 4.15011C214.05 4.23248 213.846 4.32938 213.65 4.44011C213.46 4.56011 213.32 4.75011 213.14 4.89011C212.96 5.03011 212.73 5.14011 212.55 5.29011C212.37 5.44011 212.15 5.55011 211.97 5.70011C211.79 5.85011 211.59 6.06011 211.38 6.21011C211.165 6.35336 210.941 6.4836 210.71 6.60011C210.49 6.74011 210.23 6.81011 210 6.94011L209.32 7.31011C209.14 7.41011 208.97 7.64011 208.71 7.67011C208.475 7.65906 208.243 7.6153 208.02 7.54011C207.784 7.52836 207.552 7.48116 207.33 7.40011C207.13 7.27557 206.951 7.12034 206.8 6.94011C206.67 6.80011 206.53 6.68011 206.4 6.53011C206.3 6.37232 206.21 6.20869 206.13 6.04011C205.96 5.81011 205.71 5.64011 205.56 5.40011C205.41 5.16011 205.38 4.83011 205.22 4.60011C205.024 4.38573 204.81 4.18836 204.58 4.01011C204.376 3.85434 204.135 3.7544 203.88 3.72011C203.642 3.6456 203.388 3.6456 203.15 3.72011C202.917 3.80607 202.713 3.95493 202.56 4.15011C202.407 4.32709 202.313 4.54722 202.29 4.78011C202.29 5.02011 202.16 5.33011 202.29 5.52011C202.42 5.71011 202.55 5.90011 202.67 6.09011C202.79 6.28011 202.99 6.42011 203.11 6.61011C203.23 6.80011 203.35 6.99011 203.48 7.18011C203.61 7.37011 203.75 7.54011 203.88 7.73011C204.01 7.92011 204.16 8.08011 204.28 8.27011C204.4 8.46011 204.7 8.50011 204.9 8.64011C205.1 8.78011 205.18 9.07011 205.39 9.20011C205.6 9.33011 205.83 9.20011 205.99 9.28011C206.15 9.36011 206.28 9.54011 206.45 9.62011C206.62 9.70011 206.89 9.84011 207.12 9.92011C207.354 9.98116 207.591 10.0279 207.83 10.0601C208.066 10.1353 208.306 10.1955 208.55 10.2401C208.793 10.2551 209.037 10.2551 209.28 10.2401C209.522 10.178 209.76 10.0978 209.99 10.0001C210.234 9.96936 210.474 9.9192 210.71 9.85011C210.93 9.76011 211.06 9.49011 211.28 9.37011C211.558 9.28772 211.828 9.18408 212.09 9.06011C212.27 8.92011 212.5 8.82011 212.69 8.68011C212.88 8.54011 213.05 8.38011 213.24 8.24011C213.43 8.10011 213.56 7.87011 213.76 7.74011C213.96 7.61011 214.23 7.59011 214.42 7.45011C214.61 7.31011 214.82 7.20011 215.01 7.05011C215.2 6.90011 215.35 6.71011 215.53 6.56011C215.71 6.41011 215.86 6.17011 216.08 6.10011C216.319 6.0648 216.561 6.0648 216.8 6.10011C217.04 6.10011 217.31 5.96011 217.54 6.02011C217.77 6.08011 217.93 6.34011 218.13 6.47011C218.33 6.60011 218.5 6.77011 218.69 6.90011C218.88 7.03011 219.09 7.15011 219.29 7.29011C219.49 7.43011 219.72 7.41011 219.89 7.54011C220.06 7.67011 220.14 7.91011 220.31 8.04011C220.48 8.17011 220.72 8.21011 220.89 8.33011C221.06 8.45011 221.28 8.53011 221.45 8.66011C221.62 8.79011 221.75 9.09011 221.96 9.22011C222.17 9.35011 222.36 9.52011 222.58 9.64011C222.8 9.76011 223.11 9.64011 223.34 9.78011C223.57 9.92011 223.74 10.1001 223.97 10.1901C224.2 10.2801 224.46 10.2901 224.7 10.3701C224.94 10.4501 225.14 10.6101 225.38 10.6701C225.62 10.7301 225.83 10.8901 226.08 10.9501C226.33 11.0101 226.59 10.9501 226.83 11.0001C227.015 11.0354 227.202 11.0555 227.39 11.0601C227.58 11.0601 227.78 11.2301 227.96 11.2201C228.14 11.2101 228.4 11.1101 228.62 11.0801C228.84 11.0501 229.03 10.8701 229.25 10.8201C229.47 10.7701 229.67 10.7201 229.89 10.6701C230.11 10.6201 230.31 10.5701 230.52 10.5001C230.73 10.4301 230.99 10.5001 231.19 10.3801C231.39 10.2601 231.52 10.0601 231.72 9.96011C231.92 9.86011 232.09 9.66011 232.3 9.54011C232.51 9.42011 232.81 9.54011 233.02 9.36011C233.23 9.18011 233.33 8.98011 233.53 8.85011C233.73 8.72011 233.99 8.69011 234.18 8.55011C234.37 8.41011 234.48 8.16011 234.66 8.01011C234.84 7.86011 235.17 7.88011 235.34 7.72011C235.51 7.56011 235.61 7.26011 235.8 7.09011C235.99 6.92011 236.13 6.69011 236.33 6.54011C236.549 6.40321 236.776 6.27965 237.01 6.17011C237.23 6.06011 237.5 6.17011 237.73 6.17011C237.947 6.14576 238.168 6.17671 238.37 6.26011C238.63 6.37011 238.98 6.34011 239.2 6.51011C239.381 6.61664 239.568 6.71344 239.76 6.80011C239.923 6.93552 240.094 7.06235 240.27 7.18011C240.46 7.27011 240.65 7.37011 240.85 7.45011L241.44 7.68011C241.693 7.73957 241.951 7.77969 242.21 7.80011C242.455 7.88005 242.706 7.94024 242.96 7.98011C243.218 7.97338 243.476 7.94664 243.73 7.90011C243.992 7.85825 244.25 7.79128 244.5 7.70011C244.73 7.65011 244.95 7.56011 245.18 7.50011C245.41 7.44011 245.66 7.50011 245.88 7.40011C246.1 7.30011 246.36 7.40011 246.59 7.29011L247.26 7.05011C247.48 6.98011 247.73 6.96011 247.95 6.88011C248.17 6.80011 248.3 6.47011 248.52 6.38011C248.74 6.29011 249.02 6.38011 249.23 6.25011C249.44 6.12011 249.62 5.98011 249.83 5.87011C250.04 5.76011 250.26 5.54011 250.5 5.44011C250.74 5.34011 250.99 5.26011 251.23 5.17011C251.47 5.08011 251.77 5.17011 252.02 5.05011C252.27 4.93011 252.49 4.79011 252.74 4.73011C252.997 4.67389 253.258 4.63712 253.52 4.62011C253.781 4.57041 254.045 4.54032 254.31 4.53011C254.57 4.53011 254.79 4.79011 255.05 4.85011C255.31 4.91011 255.59 4.85011 255.83 4.94011C256.07 5.03011 256.24 5.27011 256.47 5.37011C256.7 5.47011 257 5.37011 257.23 5.52011C257.46 5.67011 257.62 5.88011 257.84 5.99011C258.06 6.10011 258.36 6.12011 258.59 6.23011C258.82 6.34011 259.08 6.41011 259.32 6.50011C259.56 6.59011 259.76 6.83011 260 6.91011L260.75 7.14011C260.98 7.21011 261.24 7.05011 261.48 7.07011C261.709 7.10511 261.941 7.10511 262.17 7.07011C262.39 7.07011 262.62 7.07011 262.84 7.07011L263.5 6.94011C263.72 6.94011 263.95 6.88011 264.17 6.82011C264.39 6.76011 264.61 6.74011 264.83 6.67011C265.05 6.60011 265.27 6.56011 265.48 6.49011C265.69 6.42011 265.88 6.27011 266.09 6.18011L266.7 5.89011C266.9 5.79011 267.04 5.57011 267.23 5.45011L267.84 5.14011L268.45 4.84011C268.65 4.74011 268.87 4.67011 269.08 4.57011C269.29 4.47011 269.45 4.31011 269.65 4.20011C269.85 4.09011 270.06 4.00011 270.25 3.88011C270.5 3.74062 270.77 3.63949 271.05 3.58011C271.299 3.55595 271.551 3.55595 271.8 3.58011C271.95 3.64011 272.08 3.58011 272.16 3.58011C272.24 3.58011 272.43 3.84011 272.58 3.96011C272.73 4.08011 272.9 4.16011 273.05 4.28011C273.2 4.40011 273.46 4.53011 273.62 4.66011C273.78 4.79011 273.95 5.04011 274.12 5.15011C274.325 5.26065 274.539 5.35429 274.76 5.43011C274.965 5.53074 275.179 5.61112 275.4 5.67011C275.626 5.68622 275.854 5.68622 276.08 5.67011C276.29 5.67011 276.5 5.77011 276.76 5.79011C277.02 5.81011 277.2 5.79011 277.45 5.79011C277.7 5.79011 277.83 5.79011 278.02 5.79011C278.21 5.79011 278.45 5.88011 278.67 5.89011C278.89 5.90011 279.11 5.89011 279.33 5.89011C279.55 5.89011 279.77 5.89011 279.99 5.89011C280.21 5.89011 280.41 5.75011 280.62 5.70011C280.83 5.65011 281.08 5.70011 281.29 5.64011C281.5 5.58011 281.68 5.40011 281.89 5.32011L282.26 5.19011C282.379 5.41836 282.513 5.6388 282.66 5.85011C282.871 6.00307 283.095 6.13693 283.33 6.25011C283.52 6.38011 283.66 6.60011 283.87 6.72011C284.08 6.84011 284.38 6.78011 284.58 6.89011C284.784 7.00225 284.994 7.10242 285.21 7.19011C285.44 7.28011 285.63 7.43011 285.85 7.49011C286.081 7.53155 286.315 7.55827 286.55 7.57011C286.78 7.57011 287.01 7.80011 287.25 7.80011C287.49 7.80011 287.73 7.80011 287.97 7.80011C288.215 7.78147 288.459 7.74807 288.7 7.70011C288.93 7.70011 289.16 7.58011 289.39 7.52011C289.62 7.46011 289.85 7.40011 290.08 7.34011C290.31 7.28011 290.49 7.07011 290.71 6.99011C290.93 6.91011 291.13 6.76011 291.34 6.66011C291.55 6.56011 291.85 6.66011 292.06 6.52011C292.27 6.38011 292.39 6.15011 292.59 6.02011C292.79 5.89011 293.04 5.91011 293.23 5.80011C293.42 5.69011 293.58 5.52011 293.77 5.41011C293.96 5.30011 294.08 5.07011 294.27 4.96011C294.46 4.85011 294.7 4.66011 294.92 4.53011C295.14 4.40011 295.49 4.46011 295.71 4.32011C295.93 4.18011 296.04 3.87011 296.26 3.74011C296.48 3.61011 296.77 3.57011 296.99 3.43011C297.087 3.36922 297.196 3.32893 297.31 3.31173C297.423 3.29453 297.539 3.30079 297.65 3.33011C297.873 3.39252 298.067 3.53036 298.2 3.72011C298.31 3.87011 298.51 3.96011 298.61 4.12011C298.71 4.28011 298.78 4.64011 298.93 4.87011C299.08 5.10011 299.37 5.20011 299.52 5.43011C299.67 5.66011 299.65 5.98011 299.8 6.22011C300.15 6.51011 300.44 6.61011 300.66 6.79011C300.88 6.97011 301 7.20011 301.18 7.34011C301.36 7.48011 301.68 7.53011 301.87 7.65011C302.06 7.77011 302.26 8.00011 302.46 8.11011C302.686 8.21751 302.92 8.30777 303.16 8.38011C303.384 8.48472 303.614 8.57491 303.85 8.65011C304.09 8.70011 304.33 8.81011 304.59 8.84011C304.85 8.87011 305.09 8.61011 305.35 8.62011H306.1C306.35 8.62011 306.6 8.84011 306.85 8.82011C307.103 8.78458 307.353 8.7345 307.6 8.67011C307.856 8.68528 308.114 8.68528 308.37 8.67011C308.59 8.61011 308.78 8.45011 309 8.39011C309.22 8.33011 309.42 8.21011 309.64 8.15011C309.86 8.09011 310.07 7.97011 310.28 7.91011C310.49 7.85011 310.77 7.99011 310.99 7.91011C311.21 7.83011 311.38 7.61011 311.6 7.55011L312.25 7.35011L312.89 7.13011C313.11 7.06011 313.37 7.13011 313.58 7.05011C313.79 6.97011 313.99 6.84011 314.2 6.76011C314.41 6.68011 314.64 6.63011 314.85 6.54011C315.06 6.45011 315.26 6.34011 315.46 6.25011C315.66 6.16011 315.9 6.11011 316.1 6.01011C316.3 5.91011 316.47 5.73011 316.67 5.62011C316.87 5.51011 317.13 5.51011 317.32 5.39011L317.91 5.04011C318.11 4.92011 318.21 4.64011 318.42 4.52011C318.63 4.40011 318.86 4.34011 319.05 4.24011C319.24 4.14011 319.55 4.15011 319.73 4.05011C319.922 3.96286 320.119 3.88609 320.32 3.82011C320.536 3.82337 320.751 3.85361 320.96 3.91011C321.152 3.98862 321.331 4.09658 321.49 4.23011C321.64 4.37011 321.81 4.48011 321.97 4.63011C322.13 4.78011 322.39 4.79011 322.54 4.93011C322.69 5.07011 322.76 5.32011 322.92 5.46011C323.08 5.60011 323.32 5.63011 323.49 5.77011C323.66 5.91011 323.8 6.18011 324.01 6.31011C324.212 6.46933 324.426 6.61307 324.65 6.74011C324.888 6.8504 325.136 6.93747 325.39 7.00011C325.62 7.00011 325.86 7.00011 326.09 7.00011C326.32 7.00011 326.54 7.09011 326.77 7.11011C327 7.13011 327.24 7.05011 327.47 7.05011C327.7 7.05011 327.93 7.18011 328.16 7.18011H328.85C329.08 7.18011 329.31 7.12011 329.54 7.08011C329.77 7.04011 329.98 6.96011 330.21 6.90011C330.44 6.84011 330.71 6.83011 330.95 6.76011L331.69 6.57011C331.93 6.51011 332.16 6.38011 332.4 6.30011C332.64 6.22011 332.85 6.07011 333.09 5.99011L333.8 5.70011C334.04 5.61011 334.25 5.48011 334.48 5.38011C334.71 5.28011 334.95 5.31011 335.16 5.22011L335.79 4.99011C336.01 4.91011 336.23 4.86011 336.45 4.80011C336.67 4.74011 336.86 4.61011 337.08 4.55011C337.3 4.49011 337.51 4.37011 337.73 4.31011C337.924 4.26525 338.126 4.26525 338.32 4.31011C338.496 4.38893 338.65 4.50899 338.77 4.66011C338.97 4.85011 339.21 5.01011 339.41 5.22011C339.61 5.43011 339.87 5.55011 340.07 5.75011C340.27 5.95011 340.21 6.15011 340.35 6.28011C340.479 6.42417 340.616 6.56104 340.76 6.69011C340.878 6.76918 341.006 6.83301 341.14 6.88011C341.233 7.03012 341.34 7.17078 341.46 7.30011C341.634 7.4046 341.819 7.49168 342.01 7.56011C342.17 7.65011 342.29 7.81011 342.46 7.89011C342.63 7.97011 342.87 7.89011 343.04 7.99011L343.56 8.18011C343.74 8.23011 343.9 8.33011 344.09 8.37011C344.277 8.38033 344.463 8.38033 344.65 8.37011C344.84 8.37011 345.03 8.52011 345.22 8.51011C345.413 8.52008 345.607 8.52008 345.8 8.51011L346.36 8.40011C346.55 8.40011 346.73 8.29011 346.91 8.24011L347.46 8.08011C347.63 8.02011 347.77 7.87011 347.95 7.80011C348.13 7.73011 348.27 7.62011 348.44 7.54011C348.61 7.46011 348.85 7.54011 349.01 7.41011C349.17 7.28011 349.26 7.12011 349.41 7.02011C349.56 6.92011 349.77 6.92011 349.92 6.83011C350.07 6.74011 350.19 6.61011 350.33 6.53011C350.47 6.45011 350.57 6.27011 350.71 6.18011L351.22 5.84011C351.39 5.73011 351.67 5.77011 351.84 5.66011C352.01 5.55011 352.09 5.32011 352.26 5.21011C352.43 5.10011 352.66 5.07011 352.83 4.96011C352.907 4.90871 352.994 4.87336 353.085 4.85618C353.176 4.839 353.269 4.84033 353.36 4.86011C353.536 4.8912 353.695 4.98325 353.81 5.12011C353.91 5.23011 354.07 5.29011 354.16 5.40011C354.25 5.51011 354.32 5.77011 354.45 5.93011C354.58 6.09011 354.82 6.16011 354.95 6.32011C355.08 6.48011 355.08 6.72011 355.21 6.88011C355.5 7.08011 355.74 7.14011 355.92 7.27011C356.1 7.40011 356.21 7.55011 356.36 7.64011C356.51 7.73011 356.77 7.76011 356.93 7.85011C357.088 7.96183 357.251 8.06531 357.42 8.16011C357.606 8.22912 357.796 8.28591 357.99 8.33011C358.369 8.46556 358.761 8.55945 359.16 8.61011C359.35 8.61011 359.55 8.42011 359.76 8.42011H360.36C360.57 8.42011 360.78 8.55011 360.98 8.54011C361.18 8.53011 361.37 8.43011 361.57 8.39011C361.778 8.38875 361.985 8.37204 362.19 8.34011C362.36 8.34011 362.51 8.16011 362.68 8.11011C362.85 8.06011 363.01 7.96011 363.19 7.91011C363.37 7.86011 363.52 7.76011 363.69 7.71011C363.86 7.66011 364.09 7.71011 364.26 7.71011C364.43 7.71011 364.56 7.47011 364.73 7.42011C364.9 7.37011 365.07 7.30011 365.24 7.25011C365.41 7.20011 365.58 7.12011 365.75 7.07011C365.92 7.02011 366.13 7.07011 366.3 6.98011C366.47 6.89011 366.62 6.81011 366.78 6.74011C366.94 6.67011 367.13 6.63011 367.29 6.56011C367.45 6.49011 367.61 6.40011 367.77 6.32011C367.93 6.24011 368.12 6.20011 368.28 6.12011C368.44 6.04011 368.56 5.90011 368.72 5.82011C368.88 5.74011 369.08 5.71011 369.23 5.62011C369.38 5.53011 369.53 5.44011 369.68 5.34011C369.83 5.24011 369.91 5.04011 370.07 4.95011C370.23 4.86011 370.42 4.80011 370.57 4.71011C370.72 4.62011 370.96 4.63011 371.1 4.55011C371.24 4.47011 371.42 4.38011 371.57 4.36011C371.739 4.33949 371.911 4.33949 372.08 4.36011C372.236 4.40737 372.385 4.47818 372.52 4.57011C372.65 4.67011 372.79 4.74011 372.92 4.84011C373.05 4.94011 373.27 4.94011 373.4 5.04011C373.53 5.14011 373.59 5.32011 373.72 5.41011C373.85 5.50011 374.05 5.52011 374.19 5.62011C374.331 5.75422 374.481 5.87788 374.64 5.99011C374.808 6.10236 374.985 6.19941 375.17 6.28011C375.364 6.3532 375.565 6.4068 375.77 6.44011C375.952 6.40346 376.118 6.31346 376.248 6.18162C376.378 6.04978 376.466 5.88212 376.5 5.70011L376.26 5.08011Z" fill="#D99C91"></path></svg>